<svg width="40" height="40" viewBox="0 0 40 40" fill="none" xmlns="http://www.w3.org/2000/svg">
<g clip-path="url(#clip0_27110_353)">
<path d="M35.8131 29.7425C35.1207 29.2274 34.1419 29.3713 33.6269 30.0635C33.3436 30.4443 33.0404 30.8178 32.7258 31.1737C32.1544 31.8202 32.2151 32.8077 32.8615 33.3792C33.1589 33.6421 33.528 33.7711 33.8958 33.7711C34.328 33.7711 34.7583 33.5928 35.0671 33.2435C35.4397 32.8221 35.7987 32.3797 36.1341 31.9287C36.6492 31.2364 36.5055 30.2575 35.8131 29.7425Z" fill="white"/>
<path d="M38.4269 22.4111C37.5842 22.2276 36.7513 22.7623 36.5678 23.6054C36.4668 24.0693 36.3447 24.534 36.2048 24.9868C35.9501 25.8113 36.4119 26.6862 37.2364 26.9409C37.3901 26.9883 37.5454 27.0109 37.6982 27.0109C38.3654 27.0109 38.9832 26.5801 39.1905 25.9092C39.3566 25.3719 39.5015 24.8204 39.6213 24.2701C39.8048 23.427 39.2701 22.5947 38.4269 22.4111Z" fill="white"/>
<path d="M28.2921 34.7454C27.8772 34.9769 27.4477 35.1933 27.0155 35.3886C26.229 35.7437 25.8794 36.6692 26.2346 37.4557C26.4955 38.0335 27.0642 38.3754 27.6595 38.3754C27.8745 38.3754 28.093 38.3308 28.3017 38.2366C28.8144 38.005 29.3236 37.7484 29.8155 37.4738C30.569 37.0532 30.8388 36.1013 30.418 35.3479C29.9975 34.5945 29.0456 34.3247 28.2921 34.7454Z" fill="white"/>
<path d="M18.4372 7.5V19.3528L12.7076 25.0823C12.0975 25.6926 12.0975 26.6819 12.7076 27.292C13.0128 27.5972 13.4125 27.7497 13.8125 27.7497C14.2124 27.7497 14.6123 27.5971 14.9175 27.292L21.1046 21.1048C21.3976 20.8119 21.5622 20.4144 21.5622 20V7.5C21.5622 6.63703 20.8627 5.9375 19.9997 5.9375C19.1368 5.9375 18.4372 6.63703 18.4372 7.5Z" fill="white"/>
<path d="M38.4375 3.35938C37.5745 3.35938 36.875 4.05891 36.875 4.92188V9.26062C33.2381 3.55687 26.8868 0 20 0C14.6578 0 9.63539 2.08039 5.85781 5.85781C2.08039 9.63539 0 14.6578 0 20C0 25.3422 2.08039 30.3646 5.85781 34.1422C9.63539 37.9196 14.6578 40 20 40C20.0132 40 20.0259 39.9984 20.0391 39.998C20.0522 39.9984 20.0649 40 20.0781 40C20.6413 40 21.2099 39.9762 21.7685 39.9295C22.6284 39.8575 23.2672 39.102 23.1952 38.2421C23.1231 37.3822 22.3687 36.7431 21.5077 36.8155C21.0355 36.8549 20.5546 36.875 20.0781 36.875C20.0649 36.875 20.0522 36.8766 20.0391 36.877C20.0259 36.8766 20.0132 36.875 20 36.875C10.6951 36.875 3.125 29.3049 3.125 20C3.125 10.6951 10.6951 3.125 20 3.125C25.9967 3.125 31.5123 6.32133 34.5262 11.4062H30.2299C29.367 11.4062 28.6674 12.1058 28.6674 12.9688C28.6674 13.8317 29.367 14.5312 30.2299 14.5312H35C35.9516 14.5312 36.8418 14.2638 37.5998 13.8005C37.6485 13.7727 37.6954 13.7428 37.7401 13.7105C39.0999 12.8159 40 11.2771 40 9.53125V4.92188C40 4.05891 39.3005 3.35938 38.4375 3.35938Z" fill="white"/>
</g>
<defs>
<clipPath id="clip0_27110_353">
<rect width="40" height="40" fill="white"/>
</clipPath>
</defs>
</svg>
