<svg width="40" height="40" viewBox="0 0 40 40" fill="none" xmlns="http://www.w3.org/2000/svg">
<g clip-path="url(#clip0_27110_342)">
<path d="M20.0001 0C8.97201 0 0 8.97188 0 19.9999C0 31.0279 8.97201 39.9997 20.0001 39.9997C31.0281 39.9997 40 31.0279 40 19.9999C40 8.97188 31.0281 0 20.0001 0ZM20.0001 36.7211C10.7799 36.7211 3.27867 29.2201 3.27867 19.9999C3.27867 10.7797 10.7799 3.27867 20.0001 3.27867C29.2203 3.27867 36.7213 10.7797 36.7213 19.9999C36.7213 29.2201 29.2203 36.7211 20.0001 36.7211Z" fill="white"/>
<path d="M28.6514 12.3238L16.7765 24.1988L11.3473 18.7696C10.7071 18.1294 9.66918 18.1294 9.02892 18.7696C8.3888 19.4098 8.3888 20.4477 9.02892 21.088L15.6173 27.6764C15.9375 27.9964 16.357 28.1565 16.7765 28.1565C17.1961 28.1565 17.6156 27.9964 17.9358 27.6764L30.9698 14.6424C31.6099 14.0021 31.6099 12.9642 30.9698 12.324C30.3295 11.6837 29.2915 11.6837 28.6514 12.3238Z" fill="white"/>
</g>
<defs>
<clipPath id="clip0_27110_342">
<rect width="40" height="40" fill="white"/>
</clipPath>
</defs>
</svg>
