<svg width="40" height="40" viewBox="0 0 40 40" fill="none" xmlns="http://www.w3.org/2000/svg">
<path d="M27.4219 17.6574V1.17188C27.4219 0.524687 26.8972 0 26.25 0H1.17188C0.524687 0 0 0.524687 0 1.17188V36.25C0 36.8972 0.524687 37.4219 1.17188 37.4219H21.7152C23.6372 38.9841 26.0859 40 28.75 40C34.9102 40 40 34.9102 40 28.75C40 22.1012 34.1031 16.8624 27.4219 17.6574ZM2.34375 2.34375H25.0781V18.1987C18.0836 20.6398 15.3912 29.052 19.5484 35.0781H2.34375V2.34375ZM28.75 37.6562C23.8821 37.6562 19.9219 33.6179 19.9219 28.75C19.9219 23.8821 23.8821 19.9219 28.75 19.9219C33.6179 19.9219 37.5781 23.8821 37.5781 28.75C37.5781 33.6179 33.6179 37.6562 28.75 37.6562Z" fill="white"/>
<path d="M21.25 13.6719C21.8972 13.6719 22.4219 13.1472 22.4219 12.5V6.25C22.4219 5.60281 21.8972 5.07812 21.25 5.07812H6.25C5.60281 5.07812 5.07812 5.60281 5.07812 6.25V12.5C5.07812 13.1472 5.60281 13.6719 6.25 13.6719H21.25ZM7.42188 7.42188H20.0781V11.3281H7.42188V7.42188Z" fill="white"/>
<path d="M8.125 16.3281H6.875C6.22781 16.3281 5.70312 16.8528 5.70312 17.5C5.70312 18.1472 6.22781 18.6719 6.875 18.6719H8.125C8.77219 18.6719 9.29688 18.1472 9.29688 17.5C9.29688 16.8528 8.77219 16.3281 8.125 16.3281Z" fill="white"/>
<path d="M14.375 16.3281H13.125C12.4778 16.3281 11.9531 16.8528 11.9531 17.5C11.9531 18.1472 12.4778 18.6719 13.125 18.6719H14.375C15.0222 18.6719 15.5469 18.1472 15.5469 17.5C15.5469 16.8528 15.0222 16.3281 14.375 16.3281Z" fill="white"/>
<path d="M20.625 16.3281H19.375C18.7278 16.3281 18.2031 16.8528 18.2031 17.5C18.2031 18.1472 18.7278 18.6719 19.375 18.6719H20.625C21.2722 18.6719 21.7969 18.1472 21.7969 17.5C21.7969 16.8528 21.2722 16.3281 20.625 16.3281Z" fill="white"/>
<path d="M8.125 22.5781H6.875C6.22781 22.5781 5.70312 23.1028 5.70312 23.75C5.70312 24.3972 6.22781 24.9219 6.875 24.9219H8.125C8.77219 24.9219 9.29688 24.3972 9.29688 23.75C9.29688 23.1028 8.77219 22.5781 8.125 22.5781Z" fill="white"/>
<path d="M14.375 22.5781H13.125C12.4778 22.5781 11.9531 23.1028 11.9531 23.75C11.9531 24.3972 12.4778 24.9219 13.125 24.9219H14.375C15.0222 24.9219 15.5469 24.3972 15.5469 23.75C15.5469 23.1028 15.0222 22.5781 14.375 22.5781Z" fill="white"/>
<path d="M8.125 28.8281H6.875C6.22781 28.8281 5.70312 29.3528 5.70312 30C5.70312 30.6472 6.22781 31.1719 6.875 31.1719H8.125C8.77219 31.1719 9.29688 30.6472 9.29688 30C9.29688 29.3528 8.77219 28.8281 8.125 28.8281Z" fill="white"/>
<path d="M14.375 28.8281H13.125C12.4778 28.8281 11.9531 29.3528 11.9531 30C11.9531 30.6472 12.4778 31.1719 13.125 31.1719H14.375C15.0222 31.1719 15.5469 30.6472 15.5469 30C15.5469 29.3528 15.0222 28.8281 14.375 28.8281Z" fill="white"/>
<path d="M30.0502 27.5954C29.3032 27.3313 28.48 27.0146 28.038 26.6679C28.009 26.6451 27.9548 26.5087 27.9928 26.3063C28.0111 26.2094 28.0949 25.8859 28.4069 25.7919C29.1885 25.5565 29.5495 25.8575 29.6149 25.9213C30.0687 26.382 30.8101 26.388 31.2713 25.9344C31.7328 25.4805 31.739 24.7386 31.2851 24.2772C30.9657 23.9523 30.5006 23.6577 29.9233 23.4946V23.4297C29.9233 22.7825 29.3986 22.2578 28.7514 22.2578C28.1042 22.2578 27.5795 22.7825 27.5795 23.4297V23.5994C25.468 24.3666 24.9821 27.2498 26.5915 28.5122C27.2983 29.0666 28.2961 29.4613 29.269 29.8052C29.8498 30.0105 29.909 30.427 29.8563 30.7401C29.7977 31.0889 29.4973 31.6807 28.7433 31.6857C27.9624 31.6911 27.7773 31.662 27.2061 31.2883C26.6644 30.934 25.9382 31.0858 25.5839 31.6274C25.2296 32.1691 25.3815 32.8953 25.923 33.2496C26.5462 33.6573 27.0396 33.8593 27.5794 33.9541V34.0665C27.5794 34.7137 28.1041 35.2384 28.7513 35.2384C29.3985 35.2384 29.9232 34.7137 29.9232 34.0665V33.8216C32.7626 32.795 33.1389 28.6871 30.0502 27.5954Z" fill="white"/>
</svg>
