<svg width="16" height="17" viewBox="0 0 16 17" fill="none" xmlns="http://www.w3.org/2000/svg">
<g clip-path="url(#clip0_27015_434)">
<path d="M6.55469 10.9499C6.49219 10.7077 6.36593 10.4866 6.18903 10.3097C6.01213 10.1328 5.79106 10.0066 5.54881 9.94406L1.25443 8.83669C1.18116 8.8159 1.11668 8.77177 1.07076 8.71101C1.02484 8.65024 1 8.57616 1 8.5C1 8.42384 1.02484 8.34976 1.07076 8.28899C1.11668 8.22823 1.18116 8.1841 1.25443 8.16331L5.54881 7.05524C5.79097 6.9928 6.01198 6.86664 6.18888 6.68987C6.36577 6.5131 6.49208 6.29218 6.55469 6.05006L7.66206 1.75567C7.68264 1.68211 7.72672 1.61731 7.78758 1.57115C7.84843 1.52499 7.92272 1.5 7.9991 1.5C8.07548 1.5 8.14976 1.52499 8.21062 1.57115C8.27147 1.61731 8.31556 1.68211 8.33614 1.75567L9.44281 6.05006C9.5053 6.2923 9.63157 6.51338 9.80847 6.69028C9.98537 6.86718 10.2064 6.99344 10.4487 7.05594L14.7431 8.16261C14.8169 8.18298 14.882 8.22701 14.9285 8.28796C14.9749 8.3489 15 8.42339 15 8.5C15 8.5766 14.9749 8.65109 14.9285 8.71204C14.882 8.77299 14.8169 8.81702 14.7431 8.83739L10.4487 9.94406C10.2064 10.0066 9.98537 10.1328 9.80847 10.3097C9.63157 10.4866 9.5053 10.7077 9.44281 10.9499L8.33544 15.2443C8.31486 15.3179 8.27077 15.3827 8.20992 15.4289C8.14906 15.475 8.07478 15.5 7.9984 15.5C7.92202 15.5 7.84773 15.475 7.78688 15.4289C7.72603 15.3827 7.68194 15.3179 7.66136 15.2443L6.55469 10.9499Z" stroke="#0F3D68" stroke-width="2" stroke-linecap="round" stroke-linejoin="round"/>
<path d="M13.332 2.5V5.16667" stroke="#D62D27" stroke-width="2" stroke-linecap="round" stroke-linejoin="round"/>
<path d="M14.6667 3.83594H12" stroke="#D62D27" stroke-width="2" stroke-linecap="round" stroke-linejoin="round"/>
<path d="M2.66797 11.8359V13.1693" stroke="#D62D27" stroke-width="2" stroke-linecap="round" stroke-linejoin="round"/>
<path d="M3.33333 12.5H2" stroke="#D62D27" stroke-width="2" stroke-linecap="round" stroke-linejoin="round"/>
</g>
<defs>
<clipPath id="clip0_27015_434">
<rect width="16" height="16" fill="white" transform="translate(0 0.5)"/>
</clipPath>
</defs>
</svg>
